<svg width="225" height="60" viewBox="0 0 225 60" fill="none" xmlns="http://www.w3.org/2000/svg">
<g filter="url(#filter0_ddd_47_401)">
<path fill-rule="evenodd" clip-rule="evenodd" d="M0 0H215V49H0V0Z" fill="#2C98F0"/>
</g>
<path d="M61.7031 8.25V31H56.2344V8.25H61.7031ZM65.5625 8.25H74.5156C76.2656 8.25 77.7865 8.51042 79.0781 9.03125C80.3698 9.55208 81.3646 10.3229 82.0625 11.3438C82.7708 12.3646 83.125 13.625 83.125 15.125C83.125 16.4271 82.9219 17.5156 82.5156 18.3906C82.1094 19.2656 81.5417 19.9896 80.8125 20.5625C80.0938 21.125 79.2552 21.5885 78.2969 21.9531L76.5 22.9688H68.9844L68.9531 18.7344H74.5156C75.2135 18.7344 75.7917 18.6094 76.25 18.3594C76.7083 18.1094 77.0521 17.7552 77.2812 17.2969C77.5208 16.8281 77.6406 16.2708 77.6406 15.625C77.6406 14.9688 77.5208 14.4062 77.2812 13.9375C77.0417 13.4688 76.6875 13.1094 76.2188 12.8594C75.7604 12.6094 75.1927 12.4844 74.5156 12.4844H71.0469V31H65.5625V8.25ZM78.0156 31L72.9844 20.9375L78.7969 20.9062L83.8906 30.7656V31H78.0156ZM94.375 31.3125C93 31.3125 91.7708 31.099 90.6875 30.6719C89.6042 30.2344 88.6875 29.6354 87.9375 28.875C87.1979 28.1146 86.6302 27.2396 86.2344 26.25C85.849 25.2604 85.6562 24.2135 85.6562 23.1094V22.5156C85.6562 21.276 85.8281 20.1302 86.1719 19.0781C86.5156 18.0156 87.026 17.0885 87.7031 16.2969C88.3802 15.5052 89.2292 14.8906 90.25 14.4531C91.2708 14.0052 92.4583 13.7812 93.8125 13.7812C95.0104 13.7812 96.0833 13.974 97.0312 14.3594C97.9792 14.7448 98.7812 15.2969 99.4375 16.0156C100.104 16.7344 100.609 17.6042 100.953 18.625C101.307 19.6458 101.484 20.7917 101.484 22.0625V24.2031H87.6719V20.9062H96.3438V20.5C96.3542 19.9375 96.2552 19.4583 96.0469 19.0625C95.849 18.6667 95.5573 18.3646 95.1719 18.1562C94.7865 17.9479 94.3177 17.8438 93.7656 17.8438C93.1927 17.8438 92.7188 17.9688 92.3438 18.2188C91.9792 18.4688 91.6927 18.8125 91.4844 19.25C91.2865 19.6771 91.1458 20.1719 91.0625 20.7344C90.9792 21.2969 90.9375 21.8906 90.9375 22.5156V23.1094C90.9375 23.7344 91.0208 24.3021 91.1875 24.8125C91.3646 25.3229 91.6146 25.7604 91.9375 26.125C92.2708 26.4792 92.6667 26.7552 93.125 26.9531C93.5938 27.151 94.125 27.25 94.7188 27.25C95.4375 27.25 96.1458 27.1146 96.8438 26.8438C97.5417 26.5729 98.1406 26.125 98.6406 25.5L101.031 28.3438C100.688 28.8333 100.198 29.3073 99.5625 29.7656C98.9375 30.224 98.1875 30.599 97.3125 30.8906C96.4375 31.1719 95.4583 31.3125 94.375 31.3125ZM108.797 17.7031V31H103.531V14.0938H108.469L108.797 17.7031ZM108.172 21.9688L106.938 22C106.938 20.7083 107.094 19.5573 107.406 18.5469C107.719 17.526 108.161 16.6615 108.734 15.9531C109.307 15.2448 109.99 14.7083 110.781 14.3438C111.583 13.9688 112.474 13.7812 113.453 13.7812C114.234 13.7812 114.948 13.8958 115.594 14.125C116.25 14.3542 116.812 14.724 117.281 15.2344C117.76 15.7448 118.125 16.4219 118.375 17.2656C118.635 18.099 118.766 19.1302 118.766 20.3594V31H113.469V20.3438C113.469 19.6667 113.375 19.151 113.188 18.7969C113 18.4323 112.729 18.1823 112.375 18.0469C112.021 17.9115 111.589 17.8438 111.078 17.8438C110.536 17.8438 110.078 17.9479 109.703 18.1562C109.328 18.3646 109.026 18.6562 108.797 19.0312C108.578 19.3958 108.417 19.8281 108.312 20.3281C108.219 20.8281 108.172 21.375 108.172 21.9688ZM130.594 14.0938V17.75H120.406V14.0938H130.594ZM122.547 9.89062H127.812V25.4844C127.812 25.9323 127.865 26.2812 127.969 26.5312C128.073 26.7708 128.25 26.9427 128.5 27.0469C128.76 27.1406 129.104 27.1875 129.531 27.1875C129.833 27.1875 130.083 27.1823 130.281 27.1719C130.479 27.151 130.667 27.125 130.844 27.0938V30.8594C130.396 31.0052 129.927 31.1146 129.438 31.1875C128.948 31.2708 128.427 31.3125 127.875 31.3125C126.75 31.3125 125.786 31.1354 124.984 30.7812C124.193 30.4271 123.589 29.8698 123.172 29.1094C122.755 28.349 122.547 27.3594 122.547 26.1406V9.89062ZM131.562 22.7188V22.3906C131.562 21.151 131.74 20.0104 132.094 18.9688C132.448 17.9167 132.969 17.0052 133.656 16.2344C134.344 15.4635 135.193 14.8646 136.203 14.4375C137.214 14 138.38 13.7812 139.703 13.7812C141.036 13.7812 142.208 14 143.219 14.4375C144.24 14.8646 145.094 15.4635 145.781 16.2344C146.469 17.0052 146.99 17.9167 147.344 18.9688C147.698 20.0104 147.875 21.151 147.875 22.3906V22.7188C147.875 23.9479 147.698 25.0885 147.344 26.1406C146.99 27.1823 146.469 28.0938 145.781 28.875C145.094 29.6458 144.245 30.2448 143.234 30.6719C142.224 31.099 141.057 31.3125 139.734 31.3125C138.411 31.3125 137.24 31.099 136.219 30.6719C135.198 30.2448 134.344 29.6458 133.656 28.875C132.969 28.0938 132.448 27.1823 132.094 26.1406C131.74 25.0885 131.562 23.9479 131.562 22.7188ZM136.828 22.3906V22.7188C136.828 23.3542 136.875 23.9479 136.969 24.5C137.062 25.0521 137.219 25.5365 137.438 25.9531C137.656 26.3594 137.953 26.6771 138.328 26.9062C138.703 27.1354 139.172 27.25 139.734 27.25C140.286 27.25 140.745 27.1354 141.109 26.9062C141.484 26.6771 141.781 26.3594 142 25.9531C142.219 25.5365 142.375 25.0521 142.469 24.5C142.562 23.9479 142.609 23.3542 142.609 22.7188V22.3906C142.609 21.776 142.562 21.1979 142.469 20.6562C142.375 20.1042 142.219 19.6198 142 19.2031C141.781 18.776 141.484 18.4427 141.109 18.2031C140.734 17.9635 140.266 17.8438 139.703 17.8438C139.151 17.8438 138.688 17.9635 138.312 18.2031C137.948 18.4427 137.656 18.776 137.438 19.2031C137.219 19.6198 137.062 20.1042 136.969 20.6562C136.875 21.1979 136.828 21.776 136.828 22.3906ZM155.531 18.2812V31H150.266V14.0938H155.188L155.531 18.2812ZM160.531 13.9688L160.438 18.8594C160.229 18.8385 159.948 18.8125 159.594 18.7812C159.24 18.75 158.943 18.7344 158.703 18.7344C158.089 18.7344 157.557 18.8073 157.109 18.9531C156.672 19.0885 156.307 19.2969 156.016 19.5781C155.734 19.849 155.526 20.1927 155.391 20.6094C155.266 21.026 155.208 21.5104 155.219 22.0625L154.266 21.4375C154.266 20.3021 154.375 19.2708 154.594 18.3438C154.823 17.4062 155.146 16.599 155.562 15.9219C155.979 15.2344 156.484 14.7083 157.078 14.3438C157.672 13.9688 158.339 13.7812 159.078 13.7812C159.339 13.7812 159.594 13.7969 159.844 13.8281C160.104 13.8594 160.333 13.9062 160.531 13.9688Z" fill="white"/>
<defs>
<filter id="filter0_ddd_47_401" x="-10" y="-9" width="235" height="69" filterUnits="userSpaceOnUse" color-interpolation-filters="sRGB">
<feFlood flood-opacity="0" result="BackgroundImageFix"/>
<feColorMatrix in="SourceAlpha" type="matrix" values="0 0 0 0 0 0 0 0 0 0 0 0 0 0 0 0 0 0 127 0" result="hardAlpha"/>
<feOffset dy="1"/>
<feGaussianBlur stdDeviation="5"/>
<feColorMatrix type="matrix" values="0 0 0 0 0 0 0 0 0 0 0 0 0 0 0 0 0 0 0.2 0"/>
<feBlend mode="normal" in2="BackgroundImageFix" result="effect1_dropShadow_47_401"/>
<feColorMatrix in="SourceAlpha" type="matrix" values="0 0 0 0 0 0 0 0 0 0 0 0 0 0 0 0 0 0 127 0" result="hardAlpha"/>
<feOffset dy="4"/>
<feGaussianBlur stdDeviation="2.5"/>
<feColorMatrix type="matrix" values="0 0 0 0 0 0 0 0 0 0 0 0 0 0 0 0 0 0 0.12 0"/>
<feBlend mode="normal" in2="effect1_dropShadow_47_401" result="effect2_dropShadow_47_401"/>
<feColorMatrix in="SourceAlpha" type="matrix" values="0 0 0 0 0 0 0 0 0 0 0 0 0 0 0 0 0 0 127 0" result="hardAlpha"/>
<feOffset dy="2"/>
<feGaussianBlur stdDeviation="2"/>
<feColorMatrix type="matrix" values="0 0 0 0 0 0 0 0 0 0 0 0 0 0 0 0 0 0 0.14 0"/>
<feBlend mode="normal" in2="effect2_dropShadow_47_401" result="effect3_dropShadow_47_401"/>
<feBlend mode="normal" in="SourceGraphic" in2="effect3_dropShadow_47_401" result="shape"/>
</filter>
</defs>
</svg>
