<svg width="105" height="24" viewBox="0 0 105 24" fill="none" xmlns="http://www.w3.org/2000/svg">
<path d="M5.7031 0.25V23H0.234352V0.25H5.7031ZM9.56248 0.25H18.5156C20.2656 0.25 21.7864 0.510417 23.0781 1.03125C24.3698 1.55208 25.3646 2.32292 26.0625 3.34375C26.7708 4.36458 27.125 5.625 27.125 7.125C27.125 8.42708 26.9219 9.51562 26.5156 10.3906C26.1094 11.2656 25.5416 11.9896 24.8125 12.5625C24.0937 13.125 23.2552 13.5885 22.2969 13.9531L20.5 14.9688H12.9844L12.9531 10.7344H18.5156C19.2135 10.7344 19.7916 10.6094 20.25 10.3594C20.7083 10.1094 21.0521 9.75521 21.2812 9.29688C21.5208 8.82812 21.6406 8.27083 21.6406 7.625C21.6406 6.96875 21.5208 6.40625 21.2812 5.9375C21.0416 5.46875 20.6875 5.10938 20.2187 4.85938C19.7604 4.60938 19.1927 4.48438 18.5156 4.48438H15.0469V23H9.56248V0.25ZM22.0156 23L16.9844 12.9375L22.7969 12.9062L27.8906 22.7656V23H22.0156ZM38.375 23.3125C37 23.3125 35.7708 23.099 34.6875 22.6719C33.6041 22.2344 32.6875 21.6354 31.9375 20.875C31.1979 20.1146 30.6302 19.2396 30.2344 18.25C29.8489 17.2604 29.6562 16.2135 29.6562 15.1094V14.5156C29.6562 13.276 29.8281 12.1302 30.1719 11.0781C30.5156 10.0156 31.026 9.08854 31.7031 8.29688C32.3802 7.50521 33.2291 6.89062 34.25 6.45312C35.2708 6.00521 36.4583 5.78125 37.8125 5.78125C39.0104 5.78125 40.0833 5.97396 41.0312 6.35938C41.9791 6.74479 42.7812 7.29688 43.4375 8.01562C44.1041 8.73438 44.6094 9.60417 44.9531 10.625C45.3073 11.6458 45.4844 12.7917 45.4844 14.0625V16.2031H31.6719V12.9062H40.3437V12.5C40.3541 11.9375 40.2552 11.4583 40.0469 11.0625C39.8489 10.6667 39.5573 10.3646 39.1719 10.1562C38.7864 9.94792 38.3177 9.84375 37.7656 9.84375C37.1927 9.84375 36.7187 9.96875 36.3437 10.2188C35.9791 10.4688 35.6927 10.8125 35.4844 11.25C35.2864 11.6771 35.1458 12.1719 35.0625 12.7344C34.9791 13.2969 34.9375 13.8906 34.9375 14.5156V15.1094C34.9375 15.7344 35.0208 16.3021 35.1875 16.8125C35.3646 17.3229 35.6146 17.7604 35.9375 18.125C36.2708 18.4792 36.6666 18.7552 37.125 18.9531C37.5937 19.151 38.125 19.25 38.7187 19.25C39.4375 19.25 40.1458 19.1146 40.8437 18.8438C41.5416 18.5729 42.1406 18.125 42.6406 17.5L45.0312 20.3438C44.6875 20.8333 44.1979 21.3073 43.5625 21.7656C42.9375 22.224 42.1875 22.599 41.3125 22.8906C40.4375 23.1719 39.4583 23.3125 38.375 23.3125ZM52.7969 9.70312V23H47.5312V6.09375H52.4687L52.7969 9.70312ZM52.1719 13.9688L50.9375 14C50.9375 12.7083 51.0937 11.5573 51.4062 10.5469C51.7187 9.52604 52.1614 8.66146 52.7344 7.95312C53.3073 7.24479 53.9896 6.70833 54.7812 6.34375C55.5833 5.96875 56.4739 5.78125 57.4531 5.78125C58.2344 5.78125 58.9479 5.89583 59.5937 6.125C60.25 6.35417 60.8125 6.72396 61.2812 7.23438C61.7604 7.74479 62.125 8.42188 62.375 9.26562C62.6354 10.099 62.7656 11.1302 62.7656 12.3594V23H57.4687V12.3438C57.4687 11.6667 57.375 11.151 57.1875 10.7969C57 10.4323 56.7291 10.1823 56.375 10.0469C56.0208 9.91146 55.5885 9.84375 55.0781 9.84375C54.5364 9.84375 54.0781 9.94792 53.7031 10.1562C53.3281 10.3646 53.026 10.6562 52.7969 11.0312C52.5781 11.3958 52.4166 11.8281 52.3125 12.3281C52.2187 12.8281 52.1719 13.375 52.1719 13.9688ZM74.5937 6.09375V9.75H64.4062V6.09375H74.5937ZM66.5469 1.89062H71.8125V17.4844C71.8125 17.9323 71.8646 18.2812 71.9687 18.5312C72.0729 18.7708 72.25 18.9427 72.5 19.0469C72.7604 19.1406 73.1041 19.1875 73.5312 19.1875C73.8333 19.1875 74.0833 19.1823 74.2812 19.1719C74.4791 19.151 74.6666 19.125 74.8437 19.0938V22.8594C74.3958 23.0052 73.9271 23.1146 73.4375 23.1875C72.9479 23.2708 72.4271 23.3125 71.875 23.3125C70.75 23.3125 69.7864 23.1354 68.9844 22.7812C68.1927 22.4271 67.5885 21.8698 67.1719 21.1094C66.7552 20.349 66.5469 19.3594 66.5469 18.1406V1.89062ZM75.5625 14.7188V14.3906C75.5625 13.151 75.7396 12.0104 76.0937 10.9688C76.4479 9.91667 76.9687 9.00521 77.6562 8.23438C78.3437 7.46354 79.1927 6.86458 80.2031 6.4375C81.2135 6 82.3802 5.78125 83.7031 5.78125C85.0364 5.78125 86.2083 6 87.2187 6.4375C88.2396 6.86458 89.0937 7.46354 89.7812 8.23438C90.4687 9.00521 90.9896 9.91667 91.3437 10.9688C91.6979 12.0104 91.875 13.151 91.875 14.3906V14.7188C91.875 15.9479 91.6979 17.0885 91.3437 18.1406C90.9896 19.1823 90.4687 20.0938 89.7812 20.875C89.0937 21.6458 88.2448 22.2448 87.2344 22.6719C86.2239 23.099 85.0573 23.3125 83.7344 23.3125C82.4114 23.3125 81.2396 23.099 80.2187 22.6719C79.1979 22.2448 78.3437 21.6458 77.6562 20.875C76.9687 20.0938 76.4479 19.1823 76.0937 18.1406C75.7396 17.0885 75.5625 15.9479 75.5625 14.7188ZM80.8281 14.3906V14.7188C80.8281 15.3542 80.875 15.9479 80.9687 16.5C81.0625 17.0521 81.2187 17.5365 81.4375 17.9531C81.6562 18.3594 81.9531 18.6771 82.3281 18.9062C82.7031 19.1354 83.1719 19.25 83.7344 19.25C84.2864 19.25 84.7448 19.1354 85.1094 18.9062C85.4844 18.6771 85.7812 18.3594 86 17.9531C86.2187 17.5365 86.375 17.0521 86.4687 16.5C86.5625 15.9479 86.6094 15.3542 86.6094 14.7188V14.3906C86.6094 13.776 86.5625 13.1979 86.4687 12.6562C86.375 12.1042 86.2187 11.6198 86 11.2031C85.7812 10.776 85.4844 10.4427 85.1094 10.2031C84.7344 9.96354 84.2656 9.84375 83.7031 9.84375C83.151 9.84375 82.6875 9.96354 82.3125 10.2031C81.9479 10.4427 81.6562 10.776 81.4375 11.2031C81.2187 11.6198 81.0625 12.1042 80.9687 12.6562C80.875 13.1979 80.8281 13.776 80.8281 14.3906ZM99.5312 10.2812V23H94.2656V6.09375H99.1875L99.5312 10.2812ZM104.531 5.96875L104.437 10.8594C104.229 10.8385 103.948 10.8125 103.594 10.7812C103.24 10.75 102.943 10.7344 102.703 10.7344C102.089 10.7344 101.557 10.8073 101.109 10.9531C100.672 11.0885 100.307 11.2969 100.016 11.5781C99.7344 11.849 99.526 12.1927 99.3906 12.6094C99.2656 13.026 99.2083 13.5104 99.2187 14.0625L98.2656 13.4375C98.2656 12.3021 98.375 11.2708 98.5937 10.3438C98.8229 9.40625 99.1458 8.59896 99.5625 7.92188C99.9791 7.23438 100.484 6.70833 101.078 6.34375C101.672 5.96875 102.339 5.78125 103.078 5.78125C103.339 5.78125 103.594 5.79688 103.844 5.82812C104.104 5.85938 104.333 5.90625 104.531 5.96875Z" fill="white"/>
</svg>
