<svg width="27" height="27" viewBox="0 0 27 27" fill="none" xmlns="http://www.w3.org/2000/svg">
<path d="M6.75 17.9824C8.40234 20.4082 10.6523 21.6211 13.5 21.6211C16.3477 21.6211 18.5977 20.4082 20.25 17.9824C20.2148 16.998 19.4238 16.1719 17.877 15.5039C16.3301 14.8359 14.8711 14.502 13.5 14.502C12.1289 14.502 10.6699 14.8359 9.12305 15.5039C7.57617 16.1367 6.78516 16.9629 6.75 17.9824ZM15.873 6.64453C15.2051 5.97656 14.4141 5.64258 13.5 5.64258C12.5859 5.64258 11.7949 5.97656 11.127 6.64453C10.459 7.3125 10.125 8.10352 10.125 9.01758C10.125 9.93164 10.459 10.7227 11.127 11.3906C11.7949 12.0586 12.5859 12.3926 13.5 12.3926C14.4141 12.3926 15.2051 12.0586 15.873 11.3906C16.541 10.7227 16.875 9.93164 16.875 9.01758C16.875 8.10352 16.541 7.3125 15.873 6.64453ZM5.53711 5.58984C7.75195 3.375 10.4062 2.26758 13.5 2.26758C16.5938 2.26758 19.2305 3.375 21.4102 5.58984C23.625 7.76953 24.7324 10.4062 24.7324 13.5C24.7324 16.5938 23.625 19.248 21.4102 21.4629C19.2305 23.6426 16.5938 24.7324 13.5 24.7324C10.4062 24.7324 7.75195 23.6426 5.53711 21.4629C3.35742 19.248 2.26758 16.5938 2.26758 13.5C2.26758 10.4062 3.35742 7.76953 5.53711 5.58984Z" fill="#2C98F0"/>
</svg>
